<?xml version="1.0" standalone="no"?>
<!DOCTYPE svg PUBLIC "-//W3C//DTD SVG 20010904//EN"
 "http://www.w3.org/TR/2001/REC-SVG-20010904/DTD/svg10.dtd">
<svg version="1.0" xmlns="http://www.w3.org/2000/svg"
 width="460.000000pt" height="460.000000pt" viewBox="0 0 460.000000 460.000000"
 preserveAspectRatio="xMidYMid meet">
<metadata>
Created by potrace 1.11, written by Peter Selinger 2001-2013
</metadata>
<g transform="translate(0.000000,460.000000) scale(0.100000,-0.100000)"
fill="#000000" stroke="none">
<path d="M2945 3809 c-141 -13 -336 -38 -506 -65 -128 -19 -220 -26 -500 -34
-189 -5 -444 -10 -567 -10 -249 0 -378 -10 -657 -49 l-190 -27 3 -54 c2 -30 4
-55 5 -57 2 -1 48 3 104 8 132 13 206 1 248 -41 l30 -30 3 -403 c6 -714 -26
-1595 -74 -2036 -8 -74 -13 -136 -11 -138 2 -2 46 5 98 16 263 53 571 54 899
2 315 -51 409 -45 496 32 95 84 143 248 157 540 l4 78 -55 -3 -56 -3 -13 -80
c-25 -150 -75 -264 -138 -313 -62 -49 -103 -53 -465 -46 -266 5 -364 3 -475
-9 -77 -9 -140 -15 -141 -14 -1 1 2 34 7 72 13 111 37 495 50 814 l13 293 65
-6 c274 -28 395 -37 526 -38 270 -1 358 39 341 154 -10 67 -10 67 -116 51 -72
-11 -181 -14 -447 -11 -193 2 -354 6 -358 10 -8 8 20 1106 29 1115 11 11 416
15 612 5 173 -8 196 -11 234 -33 76 -42 100 -121 100 -330 l0 -129 54 0 c51 0
55 2 60 28 6 28 30 291 42 451 l7 94 59 -7 c101 -10 133 -39 149 -134 16 -101
-9 -1287 -46 -2167 -8 -187 -11 -343 -7 -346 7 -7 291 27 299 35 4 4 27 731
67 2145 8 288 18 526 21 530 4 3 100 6 213 6 229 0 286 -10 394 -67 104 -55
204 -182 237 -303 37 -132 32 -374 -10 -512 -87 -284 -290 -432 -637 -466
l-124 -12 5 -39 c9 -65 22 -71 148 -69 480 11 839 273 943 687 24 94 35 251
25 357 -30 319 -245 511 -624 558 -102 12 -395 12 -530 0z"/>
</g>
</svg>
